<?xml version="1.0" standalone="no"?>
<svg xmlns:xlink="http://www.w3.org/1999/xlink" id="wave" style="transform:rotate(0deg); transition: 0.3s" viewBox="0 0 1440 340" version="1.1" xmlns="http://www.w3.org/2000/svg"><defs><linearGradient id="sw-gradient-0" x1="0" x2="0" y1="1" y2="0"><stop stop-color="rgba(147.71, 62, 243, 1)" offset="0%"/><stop stop-color="rgba(11, 255, 221.939, 1)" offset="100%"/></linearGradient></defs><path style="transform:translate(0, 0px); opacity:1" fill="url(#sw-gradient-0)" d="M0,272L60,255C120,238,240,204,360,187C480,170,600,170,720,141.7C840,113,960,57,1080,28.3C1200,0,1320,0,1440,39.7C1560,79,1680,159,1800,198.3C1920,238,2040,238,2160,238C2280,238,2400,238,2520,209.7C2640,181,2760,125,2880,130.3C3000,136,3120,204,3240,204C3360,204,3480,136,3600,124.7C3720,113,3840,159,3960,158.7C4080,159,4200,113,4320,130.3C4440,147,4560,227,4680,255C4800,283,4920,261,5040,226.7C5160,193,5280,147,5400,147.3C5520,147,5640,193,5760,181.3C5880,170,6000,102,6120,107.7C6240,113,6360,193,6480,209.7C6600,227,6720,181,6840,136C6960,91,7080,45,7200,73.7C7320,102,7440,204,7560,238C7680,272,7800,238,7920,238C8040,238,8160,272,8280,260.7C8400,249,8520,193,8580,164.3L8640,136L8640,340L8580,340C8520,340,8400,340,8280,340C8160,340,8040,340,7920,340C7800,340,7680,340,7560,340C7440,340,7320,340,7200,340C7080,340,6960,340,6840,340C6720,340,6600,340,6480,340C6360,340,6240,340,6120,340C6000,340,5880,340,5760,340C5640,340,5520,340,5400,340C5280,340,5160,340,5040,340C4920,340,4800,340,4680,340C4560,340,4440,340,4320,340C4200,340,4080,340,3960,340C3840,340,3720,340,3600,340C3480,340,3360,340,3240,340C3120,340,3000,340,2880,340C2760,340,2640,340,2520,340C2400,340,2280,340,2160,340C2040,340,1920,340,1800,340C1680,340,1560,340,1440,340C1320,340,1200,340,1080,340C960,340,840,340,720,340C600,340,480,340,360,340C240,340,120,340,60,340L0,340Z"/></svg>