<?xml version="1.0" standalone="no"?>
<svg xmlns:xlink="http://www.w3.org/1999/xlink" id="wave" style="transform:rotate(0deg); transition: 0.3s" viewBox="0 0 1440 490" version="1.1" xmlns="http://www.w3.org/2000/svg"><defs><linearGradient id="sw-gradient-0" x1="0" x2="0" y1="1" y2="0"><stop stop-color="rgba(0, 228.105, 204.925, 1)" offset="0%"/><stop stop-color="rgba(255, 59.836, 222.22, 1)" offset="100%"/></linearGradient></defs><path style="transform:translate(0, 0px); opacity:1" fill="url(#sw-gradient-0)" d="M0,0L80,57.2C160,114,320,229,480,236.8C640,245,800,147,960,147C1120,147,1280,245,1440,302.2C1600,359,1760,376,1920,343C2080,310,2240,229,2400,228.7C2560,229,2720,310,2880,302.2C3040,294,3200,196,3360,155.2C3520,114,3680,131,3840,179.7C4000,229,4160,310,4320,334.8C4480,359,4640,327,4800,302.2C4960,278,5120,261,5280,212.3C5440,163,5600,82,5760,81.7C5920,82,6080,163,6240,228.7C6400,294,6560,343,6720,302.2C6880,261,7040,131,7200,73.5C7360,16,7520,33,7680,81.7C7840,131,8000,212,8160,212.3C8320,212,8480,131,8640,106.2C8800,82,8960,114,9120,155.2C9280,196,9440,245,9600,285.8C9760,327,9920,359,10080,375.7C10240,392,10400,392,10560,334.8C10720,278,10880,163,11040,114.3C11200,65,11360,82,11440,89.8L11520,98L11520,490L11440,490C11360,490,11200,490,11040,490C10880,490,10720,490,10560,490C10400,490,10240,490,10080,490C9920,490,9760,490,9600,490C9440,490,9280,490,9120,490C8960,490,8800,490,8640,490C8480,490,8320,490,8160,490C8000,490,7840,490,7680,490C7520,490,7360,490,7200,490C7040,490,6880,490,6720,490C6560,490,6400,490,6240,490C6080,490,5920,490,5760,490C5600,490,5440,490,5280,490C5120,490,4960,490,4800,490C4640,490,4480,490,4320,490C4160,490,4000,490,3840,490C3680,490,3520,490,3360,490C3200,490,3040,490,2880,490C2720,490,2560,490,2400,490C2240,490,2080,490,1920,490C1760,490,1600,490,1440,490C1280,490,1120,490,960,490C800,490,640,490,480,490C320,490,160,490,80,490L0,490Z"/></svg>