<?xml version="1.0" standalone="no"?>
<svg xmlns:xlink="http://www.w3.org/1999/xlink" id="wave" style="transform:rotate(180deg); transition: 0.3s" viewBox="0 0 1440 210" version="1.1" xmlns="http://www.w3.org/2000/svg"><defs><linearGradient id="sw-gradient-0" x1="0" x2="0" y1="1" y2="0"><stop stop-color="rgba(243, 106, 62, 1)" offset="0%"/><stop stop-color="rgba(255, 179, 11, 1)" offset="100%"/></linearGradient></defs><path style="transform:translate(0, 0px); opacity:1" fill="url(#sw-gradient-0)" d="M0,189L80,168C160,147,320,105,480,98C640,91,800,119,960,108.5C1120,98,1280,49,1440,45.5C1600,42,1760,84,1920,112C2080,140,2240,154,2400,143.5C2560,133,2720,98,2880,98C3040,98,3200,133,3360,140C3520,147,3680,126,3840,115.5C4000,105,4160,105,4320,112C4480,119,4640,133,4800,147C4960,161,5120,175,5280,161C5440,147,5600,105,5760,101.5C5920,98,6080,133,6240,150.5C6400,168,6560,168,6720,140C6880,112,7040,56,7200,45.5C7360,35,7520,70,7680,94.5C7840,119,8000,133,8160,129.5C8320,126,8480,105,8640,112C8800,119,8960,154,9120,171.5C9280,189,9440,189,9600,178.5C9760,168,9920,147,10080,119C10240,91,10400,56,10560,38.5C10720,21,10880,21,11040,17.5C11200,14,11360,7,11440,3.5L11520,0L11520,210L11440,210C11360,210,11200,210,11040,210C10880,210,10720,210,10560,210C10400,210,10240,210,10080,210C9920,210,9760,210,9600,210C9440,210,9280,210,9120,210C8960,210,8800,210,8640,210C8480,210,8320,210,8160,210C8000,210,7840,210,7680,210C7520,210,7360,210,7200,210C7040,210,6880,210,6720,210C6560,210,6400,210,6240,210C6080,210,5920,210,5760,210C5600,210,5440,210,5280,210C5120,210,4960,210,4800,210C4640,210,4480,210,4320,210C4160,210,4000,210,3840,210C3680,210,3520,210,3360,210C3200,210,3040,210,2880,210C2720,210,2560,210,2400,210C2240,210,2080,210,1920,210C1760,210,1600,210,1440,210C1280,210,1120,210,960,210C800,210,640,210,480,210C320,210,160,210,80,210L0,210Z"/><defs><linearGradient id="sw-gradient-1" x1="0" x2="0" y1="1" y2="0"><stop stop-color="rgba(243, 106, 62, 1)" offset="0%"/><stop stop-color="rgba(255, 226.416, 11, 1)" offset="100%"/></linearGradient></defs><path style="transform:translate(0, 50px); opacity:0.9" fill="url(#sw-gradient-1)" d="M0,105L80,87.5C160,70,320,35,480,42C640,49,800,98,960,108.5C1120,119,1280,91,1440,87.5C1600,84,1760,105,1920,119C2080,133,2240,140,2400,150.5C2560,161,2720,175,2880,150.5C3040,126,3200,63,3360,31.5C3520,0,3680,0,3840,7C4000,14,4160,28,4320,52.5C4480,77,4640,112,4800,133C4960,154,5120,161,5280,150.5C5440,140,5600,112,5760,84C5920,56,6080,28,6240,14C6400,0,6560,0,6720,0C6880,0,7040,0,7200,10.5C7360,21,7520,42,7680,66.5C7840,91,8000,119,8160,115.5C8320,112,8480,77,8640,77C8800,77,8960,112,9120,122.5C9280,133,9440,119,9600,122.5C9760,126,9920,147,10080,161C10240,175,10400,182,10560,178.5C10720,175,10880,161,11040,140C11200,119,11360,91,11440,77L11520,63L11520,210L11440,210C11360,210,11200,210,11040,210C10880,210,10720,210,10560,210C10400,210,10240,210,10080,210C9920,210,9760,210,9600,210C9440,210,9280,210,9120,210C8960,210,8800,210,8640,210C8480,210,8320,210,8160,210C8000,210,7840,210,7680,210C7520,210,7360,210,7200,210C7040,210,6880,210,6720,210C6560,210,6400,210,6240,210C6080,210,5920,210,5760,210C5600,210,5440,210,5280,210C5120,210,4960,210,4800,210C4640,210,4480,210,4320,210C4160,210,4000,210,3840,210C3680,210,3520,210,3360,210C3200,210,3040,210,2880,210C2720,210,2560,210,2400,210C2240,210,2080,210,1920,210C1760,210,1600,210,1440,210C1280,210,1120,210,960,210C800,210,640,210,480,210C320,210,160,210,80,210L0,210Z"/></svg>